<?xml version="1.0" standalone="no"?>
<!DOCTYPE svg PUBLIC "-//W3C//DTD SVG 20010904//EN"
 "http://www.w3.org/TR/2001/REC-SVG-20010904/DTD/svg10.dtd">
<svg version="1.0" xmlns="http://www.w3.org/2000/svg"
 width="200.000000pt" height="200.000000pt" viewBox="0 0 200.000000 200.000000"
 preserveAspectRatio="xMidYMid meet">
<metadata>
Created by potrace 1.14, written by Peter Selinger 2001-2017
</metadata>
<g transform="translate(0.000000,200.000000) scale(0.100000,-0.100000)"
fill="#000000" stroke="none">
<path d="M10 1000 l0 -990 990 0 990 0 0 990 0 990 -990 0 -990 0 0 -990z
m810 338 c30 -14 71 -39 90 -56 l35 -31 -51 -52 -52 -52 -34 26 c-75 57 -155
71 -239 42 -90 -32 -143 -111 -143 -215 0 -203 215 -301 382 -173 l34 26 51
-51 50 -50 -34 -32 c-66 -60 -133 -84 -244 -88 -81 -3 -111 0 -157 16 -161 57
-252 184 -252 352 0 166 92 296 249 353 78 27 242 20 315 -15z m427 -232 c59
-140 110 -253 112 -250 2 2 52 115 111 251 l107 248 81 3 c45 2 82 -1 82 -5 0
-4 -69 -166 -152 -361 l-153 -352 -85 2 -84 3 -153 350 c-83 193 -152 353
-152 358 -1 4 39 7 88 7 l89 0 109 -254z"/>
</g>
</svg>
